<svg xmlns="http://www.w3.org/2000/svg" viewBox="0 0 123.3 45.97"><defs><style>.cls-1{font-size:36px;fill:#0000af;font-family:SegoeUI-Semibold, Segoe UI;font-weight:600;}.cls-2{fill:#01bbc8;}.cls-3{fill:#fff;}</style></defs><title>arrow_logo</title><g id="Layer_2" data-name="Layer 2"><g id="Layer_1-2" data-name="Layer 1"><text class="cls-1" transform="translate(40.81 30.6)">mtaji</text><ellipse class="cls-2" cx="17.19" cy="22.98" rx="17.19" ry="17"/><path class="cls-3" d="M11.29,20.39,13.7,16.3a.56.56,0,0,1,.33-.25l7.84-2a.55.55,0,0,1,.67.4l2,7.78a.53.53,0,0,1-.05.39l-2.24,4a.54.54,0,0,1-1-.14L19.66,20A.55.55,0,0,0,19,19.6l-7.13,1.59A.54.54,0,0,1,11.29,20.39Z"/><path class="cls-3" d="M7,28.24l2.42-4.09a.56.56,0,0,1,.33-.25l7.84-2a.55.55,0,0,1,.66.4l2,7.78a.49.49,0,0,1-.05.39l-2.23,4a.55.55,0,0,1-1-.15l-1.57-6.54a.54.54,0,0,0-.65-.4L7.63,29.05A.55.55,0,0,1,7,28.24Z"/></g></g></svg>